<mxfile host="65bd71144e">
    <diagram id="dp8wmr-kaKrS3M3yvtji" name="Page-1">
        <mxGraphModel dx="1149" dy="771" grid="1" gridSize="10" guides="1" tooltips="1" connect="1" arrows="1" fold="1" page="1" pageScale="1" pageWidth="850" pageHeight="1100" math="0" shadow="0">
            <root>
                <mxCell id="0"/>
                <mxCell id="1" parent="0"/>
                <mxCell id="2" value="Node" style="swimlane;textDirection=ltr;startSize=23;" vertex="1" parent="1">
                    <mxGeometry x="50" y="145" width="200" height="200" as="geometry">
                        <mxRectangle x="225" y="240" width="100" height="30" as="alternateBounds"/>
                    </mxGeometry>
                </mxCell>
                <mxCell id="3" value="-&amp;nbsp; view: IUIView" style="text;html=1;align=left;verticalAlign=middle;resizable=0;points=[];autosize=1;strokeColor=none;fillColor=none;" vertex="1" parent="2">
                    <mxGeometry x="5" y="40" width="110" height="30" as="geometry"/>
                </mxCell>
                <mxCell id="4" value="-&amp;nbsp; &amp;nbsp;key : UIKey" style="text;html=1;align=left;verticalAlign=middle;resizable=0;points=[];autosize=1;strokeColor=none;fillColor=none;" vertex="1" parent="2">
                    <mxGeometry y="70" width="100" height="30" as="geometry"/>
                </mxCell>
                <mxCell id="5" value="Text" style="text;html=1;align=center;verticalAlign=middle;resizable=0;points=[];autosize=1;strokeColor=none;fillColor=none;" vertex="1" parent="1">
                    <mxGeometry x="225" y="345" width="50" height="30" as="geometry"/>
                </mxCell>
                <mxCell id="6" value="UIModule" style="rounded=0;whiteSpace=wrap;html=1;" vertex="1" parent="1">
                    <mxGeometry x="370" y="50" width="120" height="60" as="geometry"/>
                </mxCell>
                <mxCell id="7" value="UIView" style="swimlane;" vertex="1" parent="1">
                    <mxGeometry x="290" y="145" width="200" height="200" as="geometry"/>
                </mxCell>
                <mxCell id="8" value="VM" style="swimlane;" vertex="1" parent="1">
                    <mxGeometry x="290" y="370" width="200" height="200" as="geometry"/>
                </mxCell>
                <mxCell id="9" value="Repository" style="swimlane;" vertex="1" parent="1">
                    <mxGeometry x="570" y="145" width="200" height="200" as="geometry"/>
                </mxCell>
                <mxCell id="10" value="AggRoot" style="swimlane;" vertex="1" parent="1">
                    <mxGeometry x="520" y="390" width="200" height="200" as="geometry"/>
                </mxCell>
                <mxCell id="11" value="Entity" style="swimlane;" vertex="1" parent="1">
                    <mxGeometry x="740" y="375" width="200" height="200" as="geometry"/>
                </mxCell>
                <mxCell id="12" value="Value" style="swimlane;" vertex="1" parent="1">
                    <mxGeometry x="740" y="610" width="200" height="200" as="geometry"/>
                </mxCell>
            </root>
        </mxGraphModel>
    </diagram>
</mxfile>